# xmcd
#
# Track frame offsets:
#	150
#	27488
#	54267
#	55962
#	73485
#	95325
#	110810
#	131109
#	165489
#	188041
#	221069
#
# Disc length: 3223 seconds
#
# Revision: 1
# Processed by: cddbd v1.5.2PL0 Copyright (c) Steve Scherf et al.
# Submitted via: dBpowerAMP V4.0
#
DISCID=a70c950b
DTITLE=Jorma Kaukonen - 28 Jan 2002, Live At The Turning Point, Pie
DYEAR=2002
DGENRE=Blues
TTITLE0=I Know You Rider
TTITLE1=Keep On Truckin'
TTITLE2=Harvey Colman Intro
TTITLE3=Fool's Blues
TTITLE4=Uncle Sam Blues
TTITLE5=How Long Blues
TTITLE6=Been So Long
TTITLE7=I See The Light
TTITLE8=Prohobition Has Done Me Wrong
TTITLE9=Good Shepherd
TTITLE10=Watch The North Wind Rise
EXTD=
EXTT0=
EXTT1=
EXTT2=
EXTT3=
EXTT4=
EXTT5=
EXTT6=
EXTT7=
EXTT8=
EXTT9=
EXTT10=
PLAYORDER=
